<svg width="24" height="25" viewBox="0 0 24 25" fill="none" xmlns="http://www.w3.org/2000/svg">
<path d="M2.5 5.5C2.5 4.39543 3.39543 3.5 4.5 3.5H19.5C20.6046 3.5 21.5 4.39543 21.5 5.5V7.5C21.5 8.60457 20.6046 9.5 19.5 9.5H4.5C3.39543 9.5 2.5 8.60457 2.5 7.5V5.5Z" fill="#7527B2"/>
<path fill-rule="evenodd" clip-rule="evenodd" d="M20 10.5H4V17.5C4 19.7091 5.79086 21.5 8 21.5H16C18.2091 21.5 20 19.7091 20 17.5V10.5ZM12.6778 13.5C12.6778 13.1134 12.3644 12.8 11.9778 12.8C11.5912 12.8 11.2778 13.1134 11.2778 13.5V16.8455L10.2472 15.8149C9.97385 15.5415 9.53064 15.5415 9.25727 15.8149C8.9839 16.0883 8.9839 16.5315 9.25727 16.8048L11.1653 18.7129L11.166 18.7136C11.2724 18.8202 11.3987 18.9049 11.5379 18.9627C11.6481 19.0085 11.7646 19.0367 11.8831 19.0466C11.9141 19.0508 11.9457 19.0529 11.9778 19.0529C12.01 19.0529 12.0417 19.0508 12.0727 19.0466C12.1912 19.0367 12.3076 19.0085 12.4177 18.9627C12.5569 18.9049 12.6832 18.8203 12.7896 18.7136L12.7903 18.7129L14.6983 16.8048C14.9717 16.5315 14.9717 16.0883 14.6983 15.8149C14.425 15.5415 13.9818 15.5415 13.7084 15.8149L12.6778 16.8454V13.5Z" fill="#7527B2"/>
</svg>
