<svg width="24" height="25" viewBox="0 0 24 25" fill="none" xmlns="http://www.w3.org/2000/svg">
<path d="M4.584 9.45672V17.7067C4.584 18.5269 4.91788 19.314 5.51285 19.8934C6.11255 20.4765 6.91654 20.8019 7.75297 20.8H16.2029C17.0434 20.8 17.849 20.4739 18.443 19.8934C18.7359 19.6094 18.969 19.2696 19.1285 18.894C19.2881 18.5184 19.3708 18.1147 19.3719 17.7067V9.45672M4.584 9.45672C3.70853 9.45672 3 8.76372 3 7.9096V5.8471C3 4.99299 3.7095 4.29999 4.584 4.29999H19.3719C20.2473 4.29999 20.9559 4.99299 20.9559 5.8471V7.9096C20.9559 8.76372 20.2464 9.45672 19.3719 9.45672M4.584 9.45672H19.3719" stroke="#7527B2" stroke-width="1.4" stroke-linecap="round" stroke-linejoin="round"/>
</svg>
