<svg width="24" height="24" viewBox="0 0 24 24" fill="none" xmlns="http://www.w3.org/2000/svg">
    <path d="M12.6033 15.4055L12.6056 15.4028L17.6209 10.0491L17.6247 10.045L17.6258 10.0438C17.9192 9.71446 17.8931 9.22443 17.5994 8.92096L17.5971 8.91724L17.5964 8.91642L17.5933 8.91335L17.5927 8.91401C17.2931 8.58589 16.7787 8.58408 16.4527 8.9139L16.4508 8.91581L16.4498 8.91691L16.4479 8.91888L12.0032 13.6367L7.55176 8.91171L7.55056 8.91286C7.41312 8.74989 7.19856 8.66669 6.98301 8.66669C6.54337 8.66669 6.1665 9.02986 6.1665 9.4953C6.1665 9.71496 6.24752 9.90832 6.3837 10.0473L6.38682 10.0506L11.4279 15.4039L11.4306 15.4068L11.4515 15.4283L11.4604 15.4368L11.4627 15.4391C11.7905 15.74 12.3055 15.7365 12.6033 15.4055Z" fill="#5B4296"/>
</svg>
