<svg width="86" height="94" viewBox="0 0 86 94" fill="none" xmlns="http://www.w3.org/2000/svg">
<path d="M4 1H82C83.6569 1 85 2.34315 85 4V61H1V4C1 2.34315 2.34315 1 4 1Z" fill="white"/>
<path d="M4 1H82C83.6569 1 85 2.34315 85 4V61H1V4C1 2.34315 2.34315 1 4 1Z" stroke="#B2AFBA" stroke-width="2"/>
<rect x="8" y="8" width="4" height="4" fill="#B2AFBA"/>
<rect x="15" y="8" width="4" height="4" fill="#B2AFBA"/>
<rect x="22" y="8" width="4" height="4" fill="#B2AFBA"/>
<rect x="29" y="8" width="4" height="4" fill="#B2AFBA"/>
<rect x="36" y="8" width="4" height="4" fill="#B2AFBA"/>
<rect x="8" y="15" width="4" height="4" fill="#B2AFBA"/>
<rect x="15" y="15" width="4" height="4" fill="#B2AFBA"/>
<rect x="22" y="15" width="4" height="4" fill="#B2AFBA"/>
<rect x="29" y="15" width="4" height="4" fill="#B2AFBA"/>
<rect x="36" y="15" width="4" height="4" fill="#B2AFBA"/>
<rect x="8" y="22" width="4" height="4" fill="#B2AFBA"/>
<rect x="15" y="22" width="4" height="4" fill="#B2AFBA"/>
<rect x="22" y="22" width="4" height="4" fill="#B2AFBA"/>
<rect x="29" y="22" width="4" height="4" fill="#B2AFBA"/>
<rect x="36" y="22" width="4" height="4" fill="#B2AFBA"/>
<rect x="8" y="29" width="4" height="4" fill="#B2AFBA"/>
<rect x="15" y="29" width="4" height="4" fill="#B2AFBA"/>
<rect x="22" y="29" width="4" height="4" fill="#B2AFBA"/>
<rect x="29" y="29" width="4" height="4" fill="#B2AFBA"/>
<rect x="36" y="29" width="4" height="4" fill="#B2AFBA"/>
<rect x="8" y="36" width="4" height="4" fill="#B2AFBA"/>
<rect x="15" y="36" width="4" height="4" fill="#B2AFBA"/>
<rect x="22" y="36" width="4" height="4" fill="#B2AFBA"/>
<rect x="29" y="36" width="4" height="4" fill="#B2AFBA"/>
<rect x="36" y="36" width="4" height="4" fill="#B2AFBA"/>
<rect x="8" y="43" width="4" height="4" fill="#B2AFBA"/>
<rect x="15" y="43" width="4" height="4" fill="#B2AFBA"/>
<rect x="22" y="43" width="4" height="4" fill="#B2AFBA"/>
<rect x="29" y="43" width="4" height="4" fill="#B2AFBA"/>
<rect x="36" y="43" width="4" height="4" fill="#B2AFBA"/>
<rect x="8" y="50" width="4" height="4" fill="#B2AFBA"/>
<rect x="15" y="50" width="4" height="4" fill="#B2AFBA"/>
<rect x="22" y="50" width="4" height="4" fill="#B2AFBA"/>
<rect x="29" y="50" width="4" height="4" fill="#B2AFBA"/>
<rect x="36" y="50" width="4" height="4" fill="#B2AFBA"/>
<rect x="46" y="8" width="4" height="4" fill="#B2AFBA"/>
<rect x="53" y="8" width="4" height="4" fill="#B2AFBA"/>
<rect x="60" y="8" width="4" height="4" fill="#B2AFBA"/>
<rect x="67" y="8" width="4" height="4" fill="#B2AFBA"/>
<rect x="74" y="8" width="4" height="4" fill="#B2AFBA"/>
<rect x="46" y="15" width="4" height="4" fill="#B2AFBA"/>
<rect x="53" y="15" width="4" height="4" fill="#B2AFBA"/>
<rect x="60" y="15" width="4" height="4" fill="#B2AFBA"/>
<rect x="67" y="15" width="4" height="4" fill="#B2AFBA"/>
<rect x="74" y="15" width="4" height="4" fill="#B2AFBA"/>
<rect x="46" y="22" width="4" height="4" fill="#B2AFBA"/>
<rect x="53" y="22" width="4" height="4" fill="#B2AFBA"/>
<rect x="60" y="22" width="4" height="4" fill="#B2AFBA"/>
<rect x="67" y="22" width="4" height="4" fill="#B2AFBA"/>
<rect x="74" y="22" width="4" height="4" fill="#B2AFBA"/>
<rect x="46" y="29" width="4" height="4" fill="#B2AFBA"/>
<rect x="53" y="29" width="4" height="4" fill="#B2AFBA"/>
<rect x="60" y="29" width="4" height="4" fill="#B2AFBA"/>
<rect x="67" y="29" width="4" height="4" fill="#B2AFBA"/>
<rect x="74" y="29" width="4" height="4" fill="#B2AFBA"/>
<rect x="46" y="36" width="4" height="4" fill="#B2AFBA"/>
<rect x="53" y="36" width="4" height="4" fill="#B2AFBA"/>
<rect x="60" y="36" width="4" height="4" fill="#B2AFBA"/>
<rect x="67" y="36" width="4" height="4" fill="#B2AFBA"/>
<rect x="74" y="36" width="4" height="4" fill="#B2AFBA"/>
<rect x="46" y="43" width="4" height="4" fill="#B2AFBA"/>
<rect x="53" y="43" width="4" height="4" fill="#B2AFBA"/>
<rect x="60" y="43" width="4" height="4" fill="#B2AFBA"/>
<rect x="67" y="43" width="4" height="4" fill="#B2AFBA"/>
<rect x="74" y="43" width="4" height="4" fill="#B2AFBA"/>
<rect x="46" y="50" width="4" height="4" fill="#B2AFBA"/>
<rect x="53" y="50" width="4" height="4" fill="#B2AFBA"/>
<rect x="60" y="50" width="4" height="4" fill="#B2AFBA"/>
<rect x="67" y="50" width="4" height="4" fill="#B2AFBA"/>
<rect x="74" y="50" width="4" height="4" fill="#B2AFBA"/>
<mask id="path-72-inside-1_268_96" fill="white">
<path d="M0 62H86V90C86 92.2091 84.2091 94 82 94H4C1.79086 94 0 92.2091 0 90V62Z"/>
</mask>
<path d="M0 62H86V90C86 92.2091 84.2091 94 82 94H4C1.79086 94 0 92.2091 0 90V62Z" fill="white"/>
<path d="M0 62H86H0ZM88 90C88 93.3137 85.3137 96 82 96H4C0.686292 96 -2 93.3137 -2 90H2C2 91.1046 2.89543 92 4 92H82C83.1046 92 84 91.1046 84 90H88ZM4 96C0.686292 96 -2 93.3137 -2 90V62H2V90C2 91.1046 2.89543 92 4 92V96ZM88 62V90C88 93.3137 85.3137 96 82 96V92C83.1046 92 84 91.1046 84 90V62H88Z" fill="#B2AFBA" mask="url(#path-72-inside-1_268_96)"/>
</svg>
