<svg width="25" height="24" viewBox="0 0 25 24" fill="none" xmlns="http://www.w3.org/2000/svg">
    <path d="M9.88421 17.2105V16.5105H9.18421H6.34211C5.77398 16.5105 5.22913 16.2848 4.82741 15.8831C4.42569 15.4814 4.2 14.9365 4.2 14.3684V5.84211C4.2 5.27398 4.42569 4.72913 4.82741 4.32741C5.22913 3.92569 5.77398 3.7 6.34211 3.7H18.6579C19.226 3.7 19.7709 3.92569 20.1726 4.32741L20.6649 3.83511L20.1726 4.32741C20.5743 4.72913 20.8 5.27398 20.8 5.84211V14.3684C20.8 14.9365 20.5743 15.4814 20.1726 15.8831C19.7709 16.2848 19.226 16.5105 18.6579 16.5105H14.3095H14.019L13.8138 16.7162L10.3092 20.2303C10.3092 20.2304 10.3091 20.2304 10.309 20.2305C10.2683 20.2711 10.2089 20.3 10.1316 20.3C10.066 20.3 10.0031 20.2739 9.95666 20.2275C9.91027 20.1812 9.88421 20.1182 9.88421 20.0526V17.2105Z" stroke="#7527B2" stroke-width="1.4"/>
</svg>
