<svg width="25" height="24" viewBox="0 0 25 24" fill="none" xmlns="http://www.w3.org/2000/svg">
    <path fill-rule="evenodd" clip-rule="evenodd" d="M6.34211 3H18.6579C19.4117 3 20.1346 3.29944 20.6676 3.83243C21.2006 4.36543 21.5 5.08833 21.5 5.84211V14.3684C21.5 15.1222 21.2006 15.8451 20.6676 16.3781C20.1346 16.9111 19.4117 17.2105 18.6579 17.2105H14.3095L10.8042 20.7253C10.6337 20.8958 10.3968 21 10.1316 21C9.88032 21 9.63935 20.9002 9.46169 20.7225C9.28402 20.5449 9.18421 20.3039 9.18421 20.0526V17.2105H6.34211C5.58833 17.2105 4.86543 16.9111 4.33243 16.3781C3.79944 15.8451 3.5 15.1222 3.5 14.3684V5.84211C3.5 5.08833 3.79944 4.36543 4.33243 3.83243C4.86543 3.29944 5.58833 3 6.34211 3ZM8.25 7.5C7.83579 7.5 7.5 7.83579 7.5 8.25C7.5 8.66421 7.83579 9 8.25 9H16.75C17.1642 9 17.5 8.66421 17.5 8.25C17.5 7.83579 17.1642 7.5 16.75 7.5H8.25ZM8.25 11C7.83579 11 7.5 11.3358 7.5 11.75C7.5 12.1642 7.83579 12.5 8.25 12.5H13.75C14.1642 12.5 14.5 12.1642 14.5 11.75C14.5 11.3358 14.1642 11 13.75 11H8.25Z" fill="#7527B2"/>
</svg>
