<svg width="24" height="24" viewBox="0 0 24 24" fill="none" xmlns="http://www.w3.org/2000/svg">
<rect width="24" height="24" fill="#D8D8D8"/>
<g id="&#208;&#154;&#208;&#176;&#208;&#177;&#208;&#184;&#208;&#189;&#208;&#181;&#209;&#130; &#208;&#187;&#208;&#176;&#208;&#177;&#208;&#190;&#209;&#128;&#208;&#176;&#208;&#189;&#209;&#130;&#208;&#176;_&#209;&#129;&#208;&#191;&#208;&#184;&#209;&#129;&#208;&#190;&#208;&#186; &#208;&#191;&#208;&#176;&#209;&#134;&#208;&#184;&#208;&#181;&#208;&#189;&#209;&#130;&#208;&#190;&#208;&#178;">
<rect width="1920" height="1080" transform="translate(-64 -182)" fill="#EFECF8"/>
<g id="Frame 1261153406">
<rect x="-33.5" y="-27.5" width="1859" height="79" rx="19.5" fill="white" fill-opacity="0.4"/>
<rect x="-33.5" y="-27.5" width="1859" height="79" rx="19.5" stroke="white"/>
<g id="Frame 1261153408">
<g id="Dropdown">
<g id="Dropdown / filter / default">
<rect x="-17.5" y="-11.5" width="138" height="47" rx="23.5" fill="white" fill-opacity="0.6"/>
<rect x="-17.5" y="-11.5" width="138" height="47" rx="23.5" stroke="white"/>
<g id="mage:filter">
<path id="Vector" d="M20.3421 11.9995H9.09431M5.12412 11.9995H3.5M5.12412 11.9995C5.12412 11.4732 5.33322 10.9684 5.70541 10.5962C6.0776 10.224 6.5824 10.0149 7.10876 10.0149C7.63512 10.0149 8.13992 10.224 8.51211 10.5962C8.8843 10.9684 9.0934 11.4732 9.0934 11.9995C9.0934 12.5259 8.8843 13.0307 8.51211 13.4029C8.13992 13.7751 7.63512 13.9842 7.10876 13.9842C6.5824 13.9842 6.0776 13.7751 5.70541 13.4029C5.33322 13.0307 5.12412 12.5259 5.12412 11.9995ZM20.3421 18.0145H15.1092M15.1092 18.0145C15.1092 18.5409 14.8996 19.0463 14.5273 19.4186C14.1551 19.7909 13.6501 20 13.1237 20C12.5973 20 12.0925 19.79 11.7203 19.4178C11.3481 19.0456 11.139 18.5408 11.139 18.0145M15.1092 18.0145C15.1092 17.488 14.8996 16.9835 14.5273 16.6112C14.1551 16.239 13.6501 16.0298 13.1237 16.0298C12.5973 16.0298 12.0925 16.2389 11.7203 16.6111C11.3481 16.9833 11.139 17.4881 11.139 18.0145M11.139 18.0145H3.5M20.3421 5.98464H17.5154M13.5452 5.98464H3.5M13.5452 5.98464C13.5452 5.45828 13.7543 4.95348 14.1265 4.58129C14.4987 4.2091 15.0035 4 15.5298 4C15.7904 4 16.0485 4.05133 16.2893 4.15107C16.5301 4.25081 16.7489 4.397 16.9332 4.58129C17.1175 4.76558 17.2636 4.98436 17.3634 5.22515C17.4631 5.46594 17.5145 5.72401 17.5145 5.98464C17.5145 6.24526 17.4631 6.50334 17.3634 6.74413C17.2636 6.98491 17.1175 7.2037 16.9332 7.38799C16.7489 7.57228 16.5301 7.71847 16.2893 7.8182C16.0485 7.91794 15.7904 7.96927 15.5298 7.96927C15.0035 7.96927 14.4987 7.76018 14.1265 7.38799C13.7543 7.0158 13.5452 6.511 13.5452 5.98464Z" stroke="#5B4296" stroke-width="1.8" stroke-miterlimit="10" stroke-linecap="round"/>
</g>
</g>
</g>
</g>
</g>
</g>
</svg>
