<svg width="20" height="21" viewBox="0 0 20 21" xmlns="http://www.w3.org/2000/svg">
    <path d="M10 15.5C10.2833 15.5 10.521 15.404 10.713 15.212C10.905 15.02 11.0007 14.7827 11 14.5V10.5C11 10.2167 10.904 9.97933 10.712 9.788C10.52 9.59667 10.2827 9.50067 10 9.5C9.71733 9.49933 9.48 9.59533 9.288 9.788C9.096 9.98067 9 10.218 9 10.5V14.5C9 14.7833 9.096 15.021 9.288 15.213C9.48 15.405 9.71733 15.5007 10 15.5ZM10 7.5C10.2833 7.5 10.521 7.404 10.713 7.212C10.905 7.02 11.0007 6.78267 11 6.5C10.9993 6.21733 10.9033 5.98 10.712 5.788C10.5207 5.596 10.2833 5.5 10 5.5C9.71667 5.5 9.47933 5.596 9.288 5.788C9.09667 5.98 9.00067 6.21733 9 6.5C8.99933 6.78267 9.09533 7.02033 9.288 7.213C9.48067 7.40567 9.718 7.50133 10 7.5ZM10 20.5C8.61667 20.5 7.31667 20.2373 6.1 19.712C4.88334 19.1867 3.825 18.4743 2.925 17.575C2.025 16.6757 1.31267 15.6173 0.788001 14.4C0.263335 13.1827 0.000667933 11.8827 1.26582e-06 10.5C-0.000665401 9.11733 0.262001 7.81733 0.788001 6.6C1.314 5.38267 2.02633 4.32433 2.925 3.425C3.82367 2.52567 4.882 1.81333 6.1 1.288C7.318 0.762667 8.618 0.5 10 0.5C11.382 0.5 12.682 0.762667 13.9 1.288C15.118 1.81333 16.1763 2.52567 17.075 3.425C17.9737 4.32433 18.6863 5.38267 19.213 6.6C19.7397 7.81733 20.002 9.11733 20 10.5C19.998 11.8827 19.7353 13.1827 19.212 14.4C18.6887 15.6173 17.9763 16.6757 17.075 17.575C16.1737 18.4743 15.1153 19.187 13.9 19.713C12.6847 20.239 11.3847 20.5013 10 20.5ZM10 18.5C12.2333 18.5 14.125 17.725 15.675 16.175C17.225 14.625 18 12.7333 18 10.5C18 8.26667 17.225 6.375 15.675 4.825C14.125 3.275 12.2333 2.5 10 2.5C7.76667 2.5 5.875 3.275 4.325 4.825C2.775 6.375 2 8.26667 2 10.5C2 12.7333 2.775 14.625 4.325 16.175C5.875 17.725 7.76667 18.5 10 18.5Z" fill="#7B43F2" />
</svg>
