<svg width="24" height="24" viewBox="0 0 24 24" fill="none" xmlns="http://www.w3.org/2000/svg">
    <rect x="0.625" y="0.625" width="22.75" height="22.75" rx="11.375" stroke="white" stroke-width="1.25"/>
    <path d="M7.01695 13C6.4553 13 6 12.5523 6 12C6 11.4477 6.4553 11 7.01695 11L16.9831 11C17.5447 11 18 11.4477 18 12C18 12.5523 17.5447 13 16.9831 13L7.01695 13Z" fill="white"/>
    <path d="M13 16.9831C13 17.5447 12.5523 18 12 18C11.4477 18 11 17.5447 11 16.9831L11 7.01695C11 6.4553 11.4477 6 12 6C12.5523 6 13 6.4553 13 7.01695V16.9831Z" fill="white"/>
</svg>
