<svg width="25" height="25" viewBox="0 0 25 25" fill="none" xmlns="http://www.w3.org/2000/svg">
<g clip-path="url(#clip0_4460_22207)">
<path d="M19.8333 6.16667H18.5V3.5H6.5V6.16667H5.16667C4.45942 6.16667 3.78115 6.44762 3.28105 6.94772C2.78095 7.44781 2.5 8.12609 2.5 8.83333V16.1667H5.11333V14.8933H3.83333V8.83333C3.83333 8.47971 3.97381 8.14057 4.22386 7.89052C4.47391 7.64048 4.81304 7.5 5.16667 7.5H19.8333C20.187 7.5 20.5261 7.64048 20.7761 7.89052C21.0262 8.14057 21.1667 8.47971 21.1667 8.83333V14.8333H19.8867V16.1667H22.5V8.83333C22.5 8.12609 22.219 7.44781 21.719 6.94772C21.2189 6.44762 20.5406 6.16667 19.8333 6.16667ZM17.1667 6.16667H7.83333V4.83333H17.1667V6.16667Z" fill="#7527B2"/>
<path d="M19.1667 12.1667H5.83333C5.65652 12.1667 5.48695 12.2369 5.36193 12.3619C5.2369 12.487 5.16667 12.6565 5.16667 12.8333C5.16667 13.0101 5.2369 13.1797 5.36193 13.3047C5.48695 13.4298 5.65652 13.5 5.83333 13.5H6.5V21.5H18.5V13.5H19.1667C19.3435 13.5 19.513 13.4298 19.6381 13.3047C19.7631 13.1797 19.8333 13.0101 19.8333 12.8333C19.8333 12.6565 19.7631 12.487 19.6381 12.3619C19.513 12.2369 19.3435 12.1667 19.1667 12.1667ZM17.1667 20.1667H7.83333V13.5H17.1667V20.1667Z" fill="#7527B2"/>
<path d="M18.5 8.86H19.8333V10.1933H18.5V8.86Z" fill="#7527B2"/>
</g>
<defs>
<clipPath id="clip0_4460_22207">
<rect width="24" height="24" fill="white" transform="translate(0.5 0.5)"/>
</clipPath>
</defs>
</svg>
